<svg width="20" height="20" viewBox="0 0 20 20" fill="none" xmlns="http://www.w3.org/2000/svg">
<rect width="20" height="20" rx="3" fill="black"/>
<path d="M18 10C18 14.4183 14.4183 18 10 18C5.58172 18 2 14.4183 2 10C2 5.58172 5.58172 2 10 2C14.4183 2 18 5.58172 18 10Z" fill="white"/>
<ellipse cx="9" cy="9.15" rx="7" ry="7.15" fill="black"/>
<path d="M3.01738 6.65335C4.13155 3.53109 7.58532 1.91016 10.7316 3.0329C13.8779 4.15564 15.5252 7.59689 14.411 10.7191C13.2969 13.8414 9.84311 15.4623 6.69684 14.3396C3.55056 13.2168 1.90322 9.7756 3.01738 6.65335Z" fill="white"/>
<circle cx="7.55233" cy="7.68332" r="4.61731" transform="rotate(-160.361 7.55233 7.68332)" fill="black"/>
<path d="M3.60354 5.82542C4.25892 3.98884 6.2905 3.03538 8.1412 3.6958C9.9919 4.35622 10.9609 6.38043 10.3055 8.21701C9.65015 10.0536 7.61857 11.007 5.76787 10.3466C3.91717 9.68621 2.94817 7.662 3.60354 5.82542Z" fill="white"/>
<circle cx="6.27109" cy="6.43124" r="2.716" transform="rotate(-160.361 6.27109 6.43124)" fill="black"/>
</svg>
