<svg width="20" height="20" viewBox="0 0 20 20" fill="none" xmlns="http://www.w3.org/2000/svg">
<rect width="20" height="20" rx="3" fill="black"/>
<path d="M16.5 9.91177C16.5 13.5503 13.5503 16.5 9.91177 16.5C6.27318 16.5 3.32353 13.5503 3.32353 9.91177C3.32353 6.27319 6.27318 3.32353 9.91177 3.32353C13.5503 3.32353 16.5 6.27319 16.5 9.91177Z" fill="white"/>
<ellipse cx="9.08824" cy="9.21177" rx="5.76471" ry="5.88824" fill="black"/>
<path d="M4.16138 7.1557C5.07893 4.58444 7.92321 3.24955 10.5143 4.17416C13.1053 5.09877 14.4619 7.93274 13.5444 10.504C12.6268 13.0753 9.78256 14.4102 7.19151 13.4855C4.60046 12.5609 3.24383 9.72697 4.16138 7.1557Z" fill="white"/>
<circle cx="7.89603" cy="8.00391" r="3.80249" transform="rotate(-160.361 7.89603 8.00391)" fill="black"/>
<path d="M4.6441 6.47387C5.18382 4.9614 6.85688 4.1762 8.38099 4.72007C9.9051 5.26394 10.7031 6.93094 10.1634 8.44342C9.62366 9.95589 7.95059 10.7411 6.42648 10.1972C4.90238 9.65335 4.10437 7.98635 4.6441 6.47387Z" fill="white"/>
<circle cx="6.84089" cy="6.97279" r="2.23671" transform="rotate(-160.361 6.84089 6.97279)" fill="black"/>
</svg>
